<svg width="22" height="25" fill="none" xmlns="http://www.w3.org/2000/svg"><path d="M20.446 4.552H4.026L3.784 1.02C3.743.443 3.37 0 2.923 0h-1.75C.695 0 .309.502.309 1.12c0 .619.386 1.12.863 1.12h.963l.992 14.354c.07 1.035.501 2.157 1.242 2.92C3.033 21.731 4.254 25 6.43 25c1.804 0 3.077-2.338 2.458-4.552h4.72C12.99 22.659 14.26 25 16.066 25c1.441 0 2.614-1.523 2.614-3.396s-1.173-3.396-2.614-3.396H6.434c-.655 0-1.226-.514-1.472-1.262l13.782-1.052c.377-.028.695-.371.787-.846l1.752-9.104c.136-.706-.276-1.392-.837-1.392zM6.428 22.76c-.49 0-.89-.519-.89-1.156 0-.637.4-1.156.89-1.156s.89.518.89 1.156c0 .637-.4 1.156-.89 1.156zm9.638 0c-.491 0-.89-.519-.89-1.156 0-.637.399-1.156.89-1.156.49 0 .89.518.89 1.156 0 .637-.4 1.156-.89 1.156zm1.945-9.054L4.73 14.72l-.548-7.928h15.16l-1.331 6.914z" fill="#fff"/></svg>