<svg width="43" height="43" fill="none" xmlns="http://www.w3.org/2000/svg"><circle cx="21.5" cy="21.5" r="21.5" fill="#FF8531"/><path d="M29.26 16.913H15.187l-.21-2.26a.73.73 0 00-.736-.653H12.74a.728.728 0 00-.739.717c0 .396.331.717.74.717h.825l.85 9.186c.06.662.43 1.38 1.065 1.87-1.146 1.418-.099 3.51 1.765 3.51 1.547 0 2.638-1.496 2.107-2.913h4.046c-.53 1.415.56 2.913 2.108 2.913 1.235 0 2.24-.975 2.24-2.174 0-1.198-1.005-2.173-2.24-2.173H17.25c-.561 0-1.05-.329-1.262-.807l11.814-.674a.734.734 0 00.674-.541l1.502-5.827c.116-.452-.237-.89-.718-.89zM17.245 28.566a.752.752 0 01-.763-.74c0-.407.343-.74.763-.74s.763.333.763.74c0 .408-.342.74-.763.74zm8.26 0a.752.752 0 01-.762-.74c0-.407.342-.74.763-.74.42 0 .762.333.762.74 0 .408-.342.74-.762.74zm1.668-5.794l-11.384.649-.47-5.074h12.995l-1.141 4.425z" fill="#fff"/></svg>