<svg width="9" height="12" fill="none" xmlns="http://www.w3.org/2000/svg"><path d="M4.194 0C1.88 0 0 1.893 0 4.219c0 .786.216 1.553.626 2.218l3.329 5.397a.349.349 0 00.297.166h.003a.349.349 0 00.297-.17l3.244-5.45a4.233 4.233 0 00.591-2.161C8.387 1.893 6.506 0 4.194 0zm3.002 6.02l-2.95 4.953L1.22 6.067a3.527 3.527 0 01-.526-1.848c0-1.939 1.573-3.52 3.5-3.52C6.12.698 7.69 2.28 7.69 4.218a3.53 3.53 0 01-.495 1.8z" fill="#fff"/><path d="M4.219 2.11c-1.163 0-2.11.946-2.11 2.109 0 1.155.931 2.11 2.11 2.11 1.193 0 2.11-.967 2.11-2.11 0-1.163-.947-2.11-2.11-2.11zm0 3.52c-.78 0-1.411-.634-1.411-1.411 0-.776.635-1.411 1.41-1.411a1.41 1.41 0 010 2.822z" fill="#fff"/></svg>