<svg viewBox="0 0 48 188" xmlns="http://www.w3.org/2000/svg" xmlns:xlink="http://www.w3.org/1999/xlink"><style>:root&gt;svg{display:none}:root&gt;svg:target{display:block}</style><svg viewBox="0 0 40 40" id="chat" xmlns="http://www.w3.org/2000/svg"><path fill-rule="evenodd" clip-rule="evenodd" d="M36.539 17.611a12.92 12.92 0 01-1.634 4.645c.063.356.095.716.095 1.077 0 1.255-.364 2.456-1.037 3.547-.337.544-.423 1.182-.456 1.604-.038.483-.026 1.012.009 1.52.039.57.109 1.168.189 1.732-.65-.19-1.356-.38-2.029-.532a14.5 14.5 0 00-1.65-.288c-.453-.046-1.107-.082-1.692.107a13.56 13.56 0 01-4.168.643c-1.763 0-3.382-.313-4.802-.856-.341.015-.685.023-1.031.023a22.06 22.06 0 01-5.748-.752C15.213 33.121 19.546 35 24.166 35c1.805 0 3.537-.277 5.134-.786h.015a2.55 2.55 0 01.368.018c.334.035.764.112 1.26.224a38.01 38.01 0 012.961.825c1.834.583 3.61-1.018 3.283-2.878-.141-.801-.288-1.778-.345-2.625a7.402 7.402 0 01-.012-1.032c.008-.106.019-.173.026-.208.937-1.553 1.477-3.322 1.477-5.205 0-2.122-.66-4.06-1.794-5.722z"/><path fill-rule="evenodd" clip-rule="evenodd" d="M9.328 9.497c-2.247 1.718-3.495 3.973-3.495 6.336 0 1.178.306 2.313.882 3.369.22.402.281.816.304 1.097.024.306.012.62-.015.915-.053.589-.18 1.256-.333 1.913a38.712 38.712 0 01-.639 2.359c.88-.32 1.843-.648 2.755-.914a17.944 17.944 0 012.145-.507c.57-.09 1.4-.179 2.112.068 1.6.554 3.391.867 5.289.867 3.578 0 6.757-1.111 9.005-2.83 2.246-1.719 3.495-3.974 3.495-6.337 0-2.363-1.249-4.618-3.495-6.336-2.248-1.72-5.427-2.83-9.005-2.83-3.579 0-6.757 1.11-9.005 2.83zM7.303 6.849c2.88-2.202 6.784-3.516 11.03-3.516 4.245 0 8.15 1.314 11.03 3.516 2.88 2.203 4.803 5.364 4.803 8.984s-1.923 6.781-4.804 8.984c-2.879 2.202-6.784 3.516-11.03 3.516-2.238 0-4.376-.365-6.317-1.029-.002.006-.16-.01-.563.054-.464.073-1.057.217-1.731.414-1.343.392-2.85.946-3.998 1.393-1.99.774-4.016-1.137-3.346-3.172.355-1.079.774-2.442 1.047-3.619.138-.593.227-1.091.26-1.46a2.9 2.9 0 00.014-.285A10.293 10.293 0 012.5 15.833c0-3.62 1.923-6.781 4.804-8.984zm-3.61 13.689l.002.014a.092.092 0 01-.002-.014z"/></svg><svg viewBox="0 0 48 48" id="comfort" xmlns="http://www.w3.org/2000/svg"><g clip-path="url(#bclip0_15010_1291)"><path d="M38.054 2.09c-6.17-.648-11.716 3.843-12.365 10.012l-1.127 10.723a1.406 1.406 0 001.252 1.545l.466.05-1.176 11.188c-.54 5.14 3.203 9.763 8.344 10.303 5.14.54 9.763-3.203 10.303-8.344l1.176-11.188.467.05a1.406 1.406 0 001.545-1.252l1.127-10.723c.648-6.169-3.843-11.716-10.012-12.364zm-.294 2.797c4.627.486 7.995 4.646 7.509 9.273l-.392 3.73-16.783-1.764.392-3.73c.487-4.627 4.647-7.995 9.274-7.509zM27.506 21.72l.294-2.797 16.783 1.764-.294 2.797-16.783-1.764zm13.448 15.553a6.57 6.57 0 01-7.212 5.841 6.57 6.57 0 01-5.84-7.212l1.175-11.189 13.053 1.372-1.176 11.188z"/><path d="M32.171 40.122l3.73.392a1.406 1.406 0 00.293-2.797l-3.729-.392a1.406 1.406 0 00-.294 2.797zM9.947 2.09C3.777 2.738-.713 8.285-.065 14.454l1.127 10.722a1.406 1.406 0 001.545 1.252l.466-.05 1.176 11.19c.54 5.14 5.163 8.883 10.304 8.343 5.141-.54 8.884-5.163 8.344-10.304L21.72 24.42l.466-.05a1.406 1.406 0 001.251-1.545L22.31 12.103c-.648-6.17-6.195-10.66-12.364-10.012zM3.712 23.484l-.294-2.797L20.2 18.923l.294 2.797-16.782 1.764zM20.099 35.9a6.57 6.57 0 01-5.84 7.213 6.57 6.57 0 01-7.213-5.84L5.87 26.083l13.054-1.371L20.099 35.9zm-.193-19.776L3.124 17.89l-.392-3.73c-.486-4.627 2.882-8.787 7.51-9.273 4.626-.487 8.786 2.882 9.272 7.51l.392 3.728z"/><path d="M12.1 40.513l3.73-.392a1.406 1.406 0 00-.295-2.797l-3.73.392a1.406 1.406 0 10.295 2.797z"/></g><defs><clipPath id="bclip0_15010_1291"><path d="M0 0h48v48H0z"/></clipPath></defs></svg><svg viewBox="0 0 1 188" id="divider" xmlns="http://www.w3.org/2000/svg"><path d="M.5 0v188"/><defs><linearGradient id="cpaint0_linear_2111_1857" x1="-1" y1="188" x2="2.533" y2=".048" gradientUnits="userSpaceOnUse"><stop stop-color="#DADBDD" stop-opacity="0"/><stop offset=".123" stop-color="#DADBDD" stop-opacity=".5"/><stop offset=".519" stop-color="#DADBDD"/><stop offset=".878" stop-color="#DADBDD" stop-opacity=".5"/><stop offset="1" stop-color="#DADBDD" stop-opacity="0"/></linearGradient></defs></svg></svg>