<svg width="8" height="9" fill="none" xmlns="http://www.w3.org/2000/svg"><path d="M5.75 9a2.01 2.01 0 01-.765-.154 8.106 8.106 0 01-2.961-2.123A9.383 9.383 0 01.137 3.392a2.782 2.782 0 01.272-2.31C.612.757.882.486 1.19.3c.33-.2.689-.3 1.068-.3.117 0 .22.093.244.222l.392 2.06a.305.305 0 01-.067.258l-.67.754c.632 1.415 1.658 2.57 2.916 3.281l.67-.754a.232.232 0 01.23-.076l1.83.441c.116.028.198.143.198.275 0 .427-.09.83-.266 1.2-.166.347-.407.65-.696.879a2.13 2.13 0 01-.965.433A1.981 1.981 0 015.75 9zM2.057.575c-.5.062-.944.357-1.238.83A2.142 2.142 0 00.607 3.2c.77 2.386 2.428 4.251 4.549 5.118.54.22 1.122.134 1.595-.239.42-.331.683-.83.738-1.393L6 6.327l-.7.788a.23.23 0 01-.283.055c-1.487-.786-2.691-2.14-3.39-3.813a.308.308 0 01.05-.319l.7-.787-.32-1.676z" fill="#fff"/></svg>